<mxfile host="app.diagrams.net" modified="2024-02-22T22:33:17.949Z" agent="Mozilla/5.0 (Windows NT 10.0; Win64; x64) AppleWebKit/537.36 (KHTML, like Gecko) Chrome/121.0.0.0 Safari/537.36" version="23.1.2" etag="i9xxuyqloPby7jWiOV8C" type="github">
  <diagram name="Strona-1" id="lG9Fa0v8eDeotSa3GM15">
    <mxGraphModel>
      <root>
        <mxCell id="0" />
        <mxCell id="1" parent="0" />
      </root>
    </mxGraphModel>
  </diagram>
</mxfile>
